<svg xmlns="http://www.w3.org/2000/svg" viewBox="0 0 1796.37 2684.98">
  <title>Plan de travail 1</title>
  <g>
    <g>
      <path d="M752.93,1323.53c-60.13,12.68-94.39,84.54-117.9,131-45.07,89.06-78.68,183.08-120.14,273.64-3.84,21.47-5.75,32.2-9.5,53.43,37.4-81.49,67.11-166.71,108.53-246.5,23.58-45.43,53.25-104.66,111.17-116,70.45-13.76,147.76,3.49,217.16,14.14,14.75-14.08,22.26-21.17,37.3-35.35C914.74,1363.45,833.23,1306.61,752.93,1323.53Z" fill="#ef5a30"/>
      <path d="M811.13,1572.23c16.53-20.26,32.9-41.08,50.79-60.65-12.41,9.71-18.28,14.51-29,24C825.41,1547,818.25,1559.36,811.13,1572.23Z" fill="#92bae2"/>
      <path d="M611,1833.81c-52.31,10.67-72.11,26.64-95.57,74.94-24.71,50.89-38.18,104.76-74.57,150.06-1,13.67-1.38,20.18-1.91,32.37,36.14-36.34,44.71-88,66.65-131.83,22.72-45.35,42.58-56.63,91.77-66.19,63-12.24,91.06-54.27,115.81-109.8,8.54-19.17,16.14-38.64,23.34-58.24C708.06,1777.9,670.57,1821.66,611,1833.81Z" fill="#ef5a30"/>
      <path d="M818.94,1540.87c-9,8-12.91,12-19.5,19.85-1.34,2.78-2.61,5.58-3.91,8.38a36.11,36.11,0,0,1,3.12-11.07,553.79,553.79,0,0,0-26.38,58.75c-33.07,34.16-71.16,61.62-125.21,70.68-52.84,8.85-77.23,45-99.18,89-32.57,65.35-52.78,134.65-91.93,197.17-2,16.59-2.87,24.65-4.48,40.12,50-76.34,64.76-232.38,174.83-248.76,57.14-8.5,95.28-45,125.79-89.69-4.52,14.37-8.86,28.8-13.19,43.25-.79,2.19-1.59,4.37-2.39,6.56.31-.57.63-1.13.93-1.7-10.21,34.06-20.55,68.15-33.63,101.54-22.62,57.76-48.34,103.39-114.74,116.06-45.31,8.65-68.9,19.65-90,60.17-22.2,42.72-28.43,100.35-74.18,128.16.1,10.26.26,15,.84,23.63,43.63-25.95,48.73-78.06,69.87-118.26,20.15-38.32,46.05-50.78,89.44-59,34.18-6.46,53.73-9.14,76.23-38,18-23.06,29.2-51.2,38.91-78,17.71-48.86,29.76-99.06,43.56-148.69,12.2-24.51,22.79-50.45,33-75.77,12-21.14,23.14-42.73,34.4-63.09-5.63,6.89-11.27,13.72-17,20.42C802,1573.93,810.1,1556.32,818.94,1540.87Zm-41.23,70.18c-.51.55-1,1.12-1.54,1.67q6.12-15.09,13.21-29.91Q783.26,1596.84,777.71,1611.05Zm-23.92,65.51c.72-2.39,1.5-4.77,2.24-7.16l.56-.84C755.66,1671.22,754.72,1673.89,753.79,1676.56Z" fill="#ef5a30"/>
      <path d="M798.65,1558c.94-1.8,1.82-3.62,2.79-5.42C800.3,1554.65,799.4,1556.39,798.65,1558Z" fill="#ef5a30"/>
      <path d="M710.13,1858.65c-11.8,36-24.94,74.77-49.55,105.06-22.17,27.28-41.26,30-74.2,36.2-49.73,9.34-74.08,25.91-94.8,70.78-18.66,40.39-27.58,91.65-74.76,112,.59,10.26,1.12,15.43,2.57,25.82C467.18,2187.72,476.8,2135,496,2094c21.29-45.43,45.22-62.21,95.61-71.87,77-14.76,101-72.1,124.59-139.58,31.8-90.9,48.1-186.68,101.36-269.41-5-12.58-7-18.64-9.68-30.18C754.93,1667.75,740.63,1765.71,710.13,1858.65Z" fill="#ef5a30"/>
      <path d="M589.1,1621.67c-40.55,80.17-68.36,165.3-110,245.09-2.88,19.12-4.29,28.56-6.93,47,36.34-68.32,59.87-141.4,94.64-210.29,24.26-48.06,48.44-89.44,105.37-101.08,89.19-18.23,141.37-61.17,214.48-110.13,13.55-11.11,20.64-16.74,35.15-28.08-74.82,19-148.09,35-223.92,49.2C640.65,1524.05,612.61,1575.18,589.1,1621.67Z" fill="#ef5a30"/>
    </g>
    <g>
      <path d="M200.54,2159.27c12.58-97.84,17.31-196.15,34.09-293.59,17.07-99.1,50.8-191.89,76.29-288.7,30-113.87-56.4-247-108.92-344.35C131.14,1101.22,29.48,947.13,25.44,794.85c-1.62-61.1,21.84-122.91,31.24-183.32C69.49,529.29,77.32,446.41,85,363.63,96.18,243.32,98,113.65,145.42,0H120.63C71.77,120.09,71.11,257.62,59.71,384.4c-7.63,84.85-15.35,169.83-28.48,254.11C22.1,697.15-1.56,757.37.08,816.63c4.09,148,107.92,290.8,177.37,417.47C232.11,1333.81,315,1470.74,285,1587.18c-25,96.92-56.89,189.65-71.48,289.12-14,95.55-15.18,191.87-26.4,287.59-9.93,84.74-29.43,172.08-53.2,254.24-26.62,92-69.34,177.8-104.66,266.85H54.07c36.66-88.74,76.08-175.66,99.22-268.72C174.14,2332.41,189.55,2244.8,200.54,2159.27Z" fill="#eeecea"/>
      <path d="M227.31,2150c16.28-101.2,28.25-202.63,50.52-302.94,21.46-96.65,56.44-188.18,84.28-282.91,15-51-1.47-103.5-18.21-152.36-24.62-71.89-57-141.47-89.7-210.32C186.58,1059,81.4,897.65,76.68,737c-1.83-62.43,21.26-125.28,31.09-186.89C120,473.72,127.9,396.85,135.66,320,146.47,213,151.46,100.64,195,0h-24.8c-45.65,107.12-48.91,228.34-59.88,342C102.6,422.1,94.69,502.24,82.2,581.81,72.57,643.19,49.29,705.86,51,768c4.29,157.53,107.61,316.21,176.7,454.47,48.89,97.84,139.94,234,109,346.72-26.42,96.11-61.23,188.51-80.6,286.68-19.55,99-27.9,199.06-42.18,298.75-12.36,86.31-24,174.12-41.86,259.55-19.64,94-55.53,182.16-93.12,270.82h24.79c38.18-88.79,70.34-178.22,86.54-273.08C205.05,2325,213.32,2237.09,227.31,2150Z" fill="#eeecea"/>
      <path d="M255.66,2141.52c20.88-103,39.85-206.11,67.35-307.85,25.55-94.51,64.12-185.4,90-279.57,37.3-135.71-48.12-299.58-103.6-421.66-65.5-144.13-175-305.22-181-466.48-2.29-61.12,20.46-122.52,30.59-182.69,11.54-68.52,19.51-137.51,27.31-206.49C197,182.66,206.23,88.36,244.59,0H219.8C178.69,94.36,171.69,197.64,161,298.12c-7.79,73.1-15.76,146.23-27.62,218.86-10,61.19-32.91,123.59-30.87,185.66,5.31,161.9,112.54,324,179,468.4,33.39,72.56,65.81,146.24,89.08,222.38,16.27,53.23,33.81,114,16.74,168.82-28.88,92.78-63.9,182.83-87.19,277.36-24.93,101.22-40.46,203.69-59,306-15.86,87.78-21.21,175.67-33.09,263.9-12.88,95.6-41.15,186.35-79.63,275.46h24.79c38.52-89.6,62.79-181.65,72.52-277.9C234.8,2317.68,237.74,2229.93,255.66,2141.52Z" fill="#eeecea"/>
      <path d="M468.48,1496.6c35.39-154.91-36.73-320.82-101.68-460.55-40.07-86.19-86.06-169.76-126.32-255.85C212.31,720,183.69,655.76,180.33,589.07c-2.9-57.69,19.51-115.66,29.87-172.27,10.87-59.43,18.72-119.27,26.64-179.1C247.73,155.47,262,77.52,294.18,0h-24.8c-35.33,82.73-47.09,168.46-57.79,256.48-7.84,64.53-15.78,129.07-27,193.17-10.25,58.62-32.83,118.51-30.24,178.15,3,68.68,30.92,135.16,58.81,197.73C252.44,913.65,297.83,999.2,337.89,1087c60.49,132.62,138.52,297.65,102.24,444.66-24.87,100.76-64.26,198.23-93.54,297.87-29.92,101.82-52.19,205-75.56,308.3-20.13,88.95-21.25,176.35-27.62,266.79-6.81,96.8-27,190.13-65.37,280.35h24.79c75-179.49,38.55-366.84,84.69-550.28C341.37,1920.59,419.38,1711.51,468.48,1496.6Z" fill="#eeecea"/>
      <path d="M317.29,2150.08c69.65-233.62,138.68-466.7,197.11-703.19,38.47-155.72,7.16-300.19-57.49-446.51-35.71-80.84-79.46-158-123-235.24-35.85-63.67-75.81-128.55-95.28-198.88-15.9-57.4-2.62-106.35,10.49-163,11.2-48.38,19.92-97.22,27.79-146.17,11.63-72.31,21.81-143,47.43-212.41-10.41,0-14.93-.83-24.84-1.29-27.82,74.93-36,153.27-47.5,231.47-16,108.73-66.92,229.71-37.7,337.78C255.59,765.2,358.16,902.37,421.48,1047.4c64.09,146.81,103.49,293.25,63.09,450.37-56.84,221-128.66,438-187.33,658.58-21.6,81.23-17.63,163.77-19.44,246.84-2.12,96.67-14.79,191.07-51.94,281.79h24.8c36.91-92.33,45.59-188.5,45.63-286.38C296.32,2314.38,292.91,2231.86,317.29,2150.08Z" fill="#eeecea"/>
      <path d="M337.16,2425c-1.58-79.64-10.92-163,12.26-240.78,70.26-235.74,129.84-473.56,190.11-712,37.76-149.43,81.36-289.35,40.13-442.66C540.21,882.82,453.6,755.72,369.24,629.32c-32-48-68.79-98.7-82.26-154.73-12.13-50.46,6-95.26,18.15-144C321.53,264.85,330.47,197.49,348,132c-10.35-.13-14.92-.55-24.85-.1C305.59,205.8,297,281.36,279.74,355.34,267.68,407,248.9,455.39,261,508.77c13.67,60.08,48.59,115.06,80.55,167.83C423.17,811.33,509,945.94,548.37,1098.41c38.57,149.47-.37,282.9-37.41,428.42-34.06,133.8-67.93,267.68-103.71,401.08-23.25,86.64-57.14,170.71-79.67,257.31-20.38,78.36-11,161.57-10.6,241.35.45,88-7.44,175.2-39.77,258.41H302C333.77,2601.16,338.92,2513.23,337.16,2425Z" fill="#eeecea"/>
      <path d="M386,2222.06C426.4,1990,491.71,1758.22,550.1,1529.8c20.68-80.92,41.71-161.77,62.3-242.71,18.53-72.86,43.85-149,49.83-224C673,928.53,615.64,798.88,538.45,688.87c-34.6-49.32-74-95.19-113.15-141.23-31.93-37.49-71.23-78.31-86.84-125.41-22.23-67.1,23.63-153.2,40.74-219.71-10.08-.59-14.92,1.15-24.89,3.6-7.85,36-16.05,71.92-25.62,107.53-12.51,46.54-29.87,86.81-15.85,134.82C327.9,500,366,546.18,398,589c38.29,51.27,77.05,102.18,111.13,156.11,74.3,117.56,132.2,253.7,120.8,393.26-5.93,72.66-29.86,146.17-47.6,216.81-19,75.73-38.46,151.37-57.62,227.07q-50.93,201.08-98.5,402.87c-18.71,79.31-47.49,157.94-63.5,237.45-31,154.12,20.49,309.94-35.93,462.42h24.79C406.44,2534,359.17,2376.15,386,2222.06Z" fill="#eeecea"/>
      <path d="M703.28,744.62C662.83,641.93,583.4,562.63,498,491.5c-32.08-26.7-71-53-95.13-87.19-25.29-35.86-17.07-63.6-2.71-102.47-9.93.54-14.92,1.57-24.91,4.89-14.59,42.8-21.82,73.34,2.36,113.8,23.3,39,61.44,71.17,93.58,103.28,83.84,83.78,162,174,201.27,285,46.78,132,11.35,251.74-22.38,382.17-42,162.52-85.73,324.64-126.4,487.48-31.56,126.35-61.66,253.08-87.11,380.68-13.29,66.67-29.47,133.64-33.48,201.52-8.34,141,22.56,287.75-26.7,424.28h24.79c49.43-137.6,18.92-287.08,20.61-429,.85-70.91,14.58-141.45,27.76-211.09,26.13-138.14,59.9-275,94.66-411.39,43.82-171.93,91-343,136.44-514.6C714.22,992,753.69,872.62,703.28,744.62Z" fill="#eeecea"/>
    </g>
    <g>
      <path d="M408.22,301.29c-11.56-1.71-16.14-.37-26.75,2.5,23.56,41.54,42.46,66.53,87.65,91,17.27,9.37,35.07,17.86,53.13,25.87C474.54,390.55,433.63,353.22,408.22,301.29Z" fill="#92bae2"/>
      <path d="M787.57,1582.9c-2,22.08,41.24,58.07,55.32,72.74,92.65,96.51,196.51,183.47,292.84,276.65,52.07,50.36,103.8,101.22,152.79,154.29,41.59,45.05,89,94.14,112.56,150.7h26.35c-23.57-56.56-71-105.65-112.55-150.7-49-53.07-100.84-103.77-152.75-154.28-100.29-97.57-205.94-191.67-300.33-294.49-15.94-17.36-56.09-52.25-58.57-77.92C795.23,1566.27,788.4,1573.6,787.57,1582.9Z" fill="#92bae2"/>
      <path d="M1580,2033.43c-69.57-70.94-142-139.33-213.37-208.61-71-69-143.57-138.16-205.82-214.57-19.88-24.39-74.19-81.69-63.06-115.77,9.81-30,58.86-20,83.16-18,43.14,3.53,86,9.63,129.43,9.26,83.22-.7,174.23-28.51,150.65-123.64-14.2-57.3-49.34-107.88-87.23-153.46-52.1-62.7-108-121.64-154.41-188q-3.15-6.71-6.51-13.29c1.08,2.78,2.1,5.57,3.1,8.37q-10-14.57-19.38-29.66-1.87-7.32-4.07-14.6c7.23,11.53,14,23.53,20.35,35.89a382,382,0,0,0-26.54-54.49,370.7,370.7,0,0,0-21.53-48.33c.1.28.21.56.3.84,2.89,8.5,5.39,17.08,7.59,25.71q-9.56-14.36-20.25-28.23-3-15.71-7.21-31.11,10.53,15.91,19.57,32.79a350,350,0,0,0-30.12-65,346.81,346.81,0,0,0-22.77-48.27c3.3,8.74,6.28,17.58,8.87,26.54-18.84-27.45-41.15-52.57-65.8-75.74q-16.62-28.34-33.73-56.44c11.39,9.66,22.45,19.66,33,30.22a356.2,356.2,0,0,1,57.66,75.42c-18.06-47.73-47-91.87-89.56-130-10.74-9.61-21.95-18.66-33.44-27.37-19.34-30.14-39.4-60-60.63-89.36C823.67,399.83,702.7,266.47,600,120.55Q566.69,102,533,84.05C635.39,232.18,762,363.77,869.15,508.8q31.22,42.26,60.81,85.54Q904.34,579,877.44,565.42q-40.83-59.37-84.93-116.65C689,314.39,565.78,193.26,471.57,52.6c-17.9-8.85-36.11-17.37-54.51-25.25,83,130.72,200.08,239.15,297.55,360q61,75.61,115.64,155.55-22.07-9.95-44.49-19.16a2163.14,2163.14,0,0,0-143-190C552.4,226.33,441.27,130.45,370.73,9.43,354,3.89,346.54,1.93,333.86,0,389.36,110,494,193,575.36,285.52A1880.74,1880.74,0,0,1,718.15,469.36c8.23,12.08,16.12,24.39,23.83,36.82q-25.54-10-51-19.6c-39.28-61.89-77.75-124.49-124.86-181-74.5-89.42-177.78-164.15-239.64-262-11.33-.3-16-.83-26.5-1.32C350.71,127.89,441.44,189.37,507,264.69c56.1,64.48,99.22,137.39,146.12,207.49q-17.09-6.46-34.26-12.89c-20.77-30.81-39.76-62.87-61.11-95.36C500,276.14,429.4,201.19,349.89,130.9c-11.25-.4-15.94-.62-26.49-.14,67.86,61.63,130.59,119.47,180.83,196,27.32,41.65,49.94,81.77,79,119q-14.26-5.5-28.4-11.26C486.48,364.39,453.11,270.66,381.2,201.45c-11-.92-15.89.88-26.5,3.49,75.74,60.9,95.6,156.61,173,216.31,2,1.52,4,3,6,4.47q-5.75-2.48-11.45-5,11.7,7.38,23.89,14.23c11.48,8.28,23.24,16.22,35.17,23.92-.75-.63-1.53-1.22-2.28-1.84-4.29-3.58-8.41-7.27-12.45-11q13.9,7.22,28.15,14,7,8.3,14.71,16.35-14.24-8.53-28.13-17.5c15.14,12.53,30.79,24.43,46.79,35.9,2,1.87,4,3.75,6.13,5.6,15.88,13.93,32.43,27.13,49.37,39.9q-9.9-10-18.9-20.38c13.41,8.81,27,17.35,40.79,25.74q9.79,12.63,20.11,24.9-21.33-14.73-42-30.26c3.7,3.74,7.48,7.44,11.39,11.11,18.54,17.36,38,33.82,57.9,49.73,8.85,9.31,18,18.42,27.57,27.24,13.31,12.27,27.22,24.35,41.55,36.33Q807,648.75,793.13,632q24.38,18.09,49.21,35.6,5.08,7,10.34,14,8.4,11,17.22,21.69c-16.35-12.79-32.37-25.63-47.89-38.6,1.61,1.71,3.21,3.44,4.84,5.13,23.37,24.25,49,47.79,75.84,71.06,31.26,33.95,65,65.92,99.31,97.2q-25.18-26.41-48.54-54.42c18.15,15,36.55,29.93,54.94,45,14.28,19.19,29.42,37.76,45.18,55.86-17.2-15.41-34.46-30.84-51.58-46.43,28,29.31,57.28,57.44,86.85,85.36,15.05,16.1,30.39,32,45.8,47.73-10,134.37-69.85,273.8-135.71,379a749.13,749.13,0,0,1-90.08,116.65c-13.58,4.4-25.47,10-33.51,17.71-12,3.93-22.84,8.87-28.58,16a28.92,28.92,0,0,0-4.13,6.8,186.74,186.74,0,0,1,24.42-10.84,31.34,31.34,0,0,0-2.3,10q-11.81,7.92-24,15.61a28,28,0,0,1,1.88-14.75c-6.09,3.4-11.19,7.15-14.44,11.4a29.18,29.18,0,0,0-6.2,14.48c-9.85,5.87-18.83,12.86-18.9,24.18a25.43,25.43,0,0,0,.13,2.6c6-4.8,12.68-9.06,17.95-13.19.68-.54,1.34-1.09,2-1.62,3.73,12.2,14.13,24.11,23,36.33,82.35,113.67,196.85,210.48,298.2,308.47,60.13,58.14,120.5,116.16,178,176.68,48.13,50.68,104.45,106.43,131.41,170.72h26.35c-27-64.29-83.28-120-131.41-170.72-57.48-60.52-117.85-118.54-178-176.68-103.87-100.43-219.92-199.77-302.23-317.75-8.3-11.9-21.24-27.35-26.09-42.73q11.36-9.54,22.27-19.41c.19,6.21,1.81,13.15,5.33,21,23.13,51.85,68.26,98.14,106.92,139.93,59.65,64.5,123.33,125.63,186.62,186.88,68.46,66.24,137.67,131.9,203.48,200.52,52.32,54.57,106.88,111.28,139.45,178.92h26.35c-32.57-67.64-87.13-124.35-139.45-178.92-65.81-68.62-135-134.28-203.47-200.52-63.3-61.25-127-122.38-186.63-186.88-38.61-41.75-84-88.15-107-140-8.1-18.31-9.24-32.13-5.57-42.75.7-.5,1.39-1,2.08-1.52,2.84-1.17,5.46-2.34,7.76-3.52,7.52-3.84,14.85-7.93,22.1-12.13a39.65,39.65,0,0,0-10.1,23.11c-4.24,45.91,51.4,102.58,79,134.78,60.37,70.42,128,135.48,194.83,200.33,76.22,74,153.73,146.82,227.37,223.11,54.59,56.55,111.35,114.69,145.38,184.93h26.35c-34.42-71-92.06-129.8-147.29-186.91-74.42-76.95-152.71-150.47-229.62-225.17-66.92-65-134.67-130.18-194.73-201-28.3-33.39-75.35-81.45-74.48-126.89.44-22.8,14.18-36.86,34.4-45.63,3.49-.78,6.87-1.59,10.09-2.42l-6.14.84a153.58,153.58,0,0,1,25.66-7.15c-2.16.82-4.33,1.64-6.52,2.43-3.93,1.4-8.32,2.67-13,3.88,12-1.65,23.72-3.29,34-5.56q10.75-2.39,21.27-5.31c11.76-.89,23.57-1.34,34.89-1.65-51.51,3.47-101.25,15-108,53-8.23,46.53,46.88,101.77,73.88,133.7,60.07,71.06,127.84,136.36,194.89,201.45,71.74,69.64,144.55,138.37,214.39,209.75,60.45,61.79,125.19,125.33,162.67,202.71h26.35c-34.84-71.82-93.19-131.17-149.1-188.91-75.27-77.72-154.41-152-232.08-227.55-67-65.21-135-130.63-194.7-202.11-24.64-29.51-81.24-87.49-69.49-131.6,16.71-62.76,171.16-46.29,220.91-50.52,83-7.07,161.34-26,142.51-121.26-12.62-63.88-35.22-121.73-68.53-175.21,43.9,58.54,78.62,122.63,94.58,198.61,18.21,86.75-72.18,98.36-144.95,104.94-44.82,4-198.1-13.35-217.51,41.56-14.33,40.56,42,100.93,64.93,128.8,59.24,71.86,127.42,137.47,194.43,202.72,78.35,76.29,158.26,151.23,234.3,229.61,56.6,58.35,115.78,118.3,151,190.92H1691c-36.15-74.19-97.1-135.49-155.09-195.05-77.61-79.72-159.1-156-238.81-233.8-67.06-65.45-135.33-131.11-193.61-203.87-21.45-26.78-67.52-75.51-58.37-112.67,14.36-58.34,178.41-33.55,223.82-37.79,66-6.15,161-24.38,139.67-105.09-24.88-94.14-79.93-170.08-142.59-241.76q-7.67-15.21-16.49-29.85c75.82,84.13,153.5,168,185.14,274.63,27.2,91.67-79.35,113.63-153,117-39.52,1.84-192.2-27.34-209.81,21.43-14.81,41,52.93,108.63,74.87,134.48,53.42,63,113,121.22,172.3,179.17,80.41,78.59,162.69,155.54,241.1,235.93,58.73,60.21,120.55,122.16,157.17,197.19h26.35C1705.67,2159.83,1640.76,2095.42,1580,2033.43ZM1041.09,835.38q-14-22.92-27.21-46.27c22.78,17.26,45,35.12,66.2,53.89q14.46,26.14,29.6,51.87C1087.81,874.41,1064.77,854.66,1041.09,835.38ZM930.22,705.23c-19.5-13.5-39-26.54-58.25-39.14q-10.9-18.27-21.57-36.69,27.74,16,55,32.49C913.71,676.31,921.94,690.78,930.22,705.23Zm32.51-6.54c21.61,14.68,42.77,30.08,63,46.37,11.32,19.73,22.33,39.65,33.25,59.61-21.55-19.07-44.17-37.36-67.31-54.94C982.17,732.65,972.56,715.61,962.73,698.69Zm220.53,302.54c.15,2.57.3,5.13.39,7.7q-11.85-12.82-24.22-25.35c0-4.33,0-8.65-.11-13Q1170.89,986.12,1183.26,1001.23Zm.51,13.4c0,.87,0,1.74.06,2.61q-12.11-13.12-24.06-26.35Q1171.88,1002.67,1183.77,1014.63Zm22.09,22.66c7.52,7.88,15,15.82,22.25,23.9.24.27.46.54.7.8.32,1.62.59,3.25.89,4.87q-11.65-12.69-23.39-25.33C1206.18,1040.12,1206,1038.7,1205.86,1037.29Zm36.28,42.49c.87,1.2,1.76,2.4,2.62,3.61l-2.32-2.55C1242.34,1080.49,1242.25,1080.13,1242.14,1079.78Zm-36.69-46.38c-.27-2.26-.6-4.53-.91-6.79q10.9,12.71,22.1,25.27,1.17,5,2.17,10.1Q1217.51,1047.43,1205.45,1033.4ZM1177.83,955q-7.42-12.56-14.74-25.11,6.86,8.76,13.34,17.8Q1177.17,951.3,1177.83,955ZM1128,847.55q3,14.79,4.82,29.86-20.88-36.43-41.66-72.83A508.93,508.93,0,0,1,1128,847.55ZM960.83,640.38q16.53,25.18,32.49,50.69C974,676.86,954,663.44,933.7,650.7q-14.19-22.46-28.82-44.63Q933.58,622.3,960.83,640.38Zm-93.07-40.85c4.08,6.36,8.07,12.79,12,19.23-17.07-9.56-34.42-18.8-51.91-27.87q-10.5-17.71-21.36-35.19,24.12,11.38,47.94,23.42C858.92,585.91,863.38,592.69,867.76,599.53ZM758.65,533.6q9.42,15.78,18.74,31.63-26.28-13.15-52.58-26.37-9.6-14.45-19-29.07C723.3,517.67,741,525.58,758.65,533.6ZM646.44,497.68c-5.4-6.94-10.59-14-15.65-21.09,12,5.37,24.07,10.64,36.06,15.9q9,13.14,18.38,26.08Q665.67,508.34,646.44,497.68Zm166.9,130.53c-15.75-10.08-31.53-20.2-47.21-30.48q-10.41-13.89-20.36-28.13,25.89,15.07,52,29.82c6.38,10.52,12.85,21,19.51,31.32Zm82.95,77.21c19,13.16,38.14,26.37,57.22,39.81q12.51,21,25.79,41.56c-19.07-14.62-38.24-29.07-57.24-43.48Q908.64,724.72,896.29,705.42ZM1069.7,879.78c22.82,19.56,45.12,39.5,66.36,60q-.13,10-.69,20-8-7.75-16.19-15.43C1101.72,923.47,1085.08,902,1069.7,879.78Zm-52.06,486.52c78.2-102.76,137.18-238.65,141.55-370.07q12.4,12.66,24.7,25.36c.34,85.41-26.25,171.73-67,246.71-39.4,72.55-94.69,136.49-164.15,183.84-2.7,1-5.32,2.06-7.82,3.21a180.75,180.75,0,0,0-17.63,4.46C960.48,1432.27,990.65,1401.78,1017.64,1366.3ZM906.75,1469q-4.37,4.59-8.82,9.12l-1.94.51A43.15,43.15,0,0,1,906.75,1469Zm11.57,3.28c-3.1,1.12-6.75,2.2-10.69,3.28,5.6-4.32,11.15-8.7,16.59-13.17,4.34-1.09,8.74-2.12,13.17-3.1a59.28,59.28,0,0,0-14.15,11.11C921.6,1471,920,1471.69,918.32,1472.29Zm62.88-28c64-34.1,117.87-82,157.56-142.43,50.65-77.18,75.66-167.18,67.92-256.46q12.06,12.79,23.78,25.78c8.49,51,4.35,105.63-16.71,164.34-33.48,93.3-107.09,165.82-201.85,204C1001.45,1440.83,991.08,1442.35,981.2,1444.34Zm256.74-164.76c26-60.63,24.33-128.68,6.15-193q7.08,8.12,14,16.32c.65,1,1.28,2,1.92,3a381.81,381.81,0,0,1,22.64,121.62c2.38,101.33-75.07,175.72-173.59,201.75-14.15,3.74-37.4,5.15-63,7.17C1130.76,1411.44,1203.3,1360.23,1237.94,1279.58Zm-58.16,154.89c-14.09,1.14-36,.63-60.59.78,4.15-.27,8-.61,11.41-1.07,91.94-12.33,179.2-62.51,177.29-160.34a376.81,376.81,0,0,0-26-130.8,458.89,458.89,0,0,1,48.4,139.93C1347.19,1380.81,1275.14,1426.7,1179.78,1434.47Zm75.64-340.65c-4.7-6-9.51-12-14.52-18q-2-6.36-4.19-12.67,5.31,5.92,10.64,11.85Q1251.61,1084.32,1255.42,1093.82Z" fill="#92bae2"/>
      <path d="M1623.26,2023.88c-72.8-73.39-148.12-144.48-222.13-216.76-63-61.47-126.57-123.2-182.49-190.62-14.47-17.45-81.74-90.15-68.28-119.24,11.14-24.1,60-5,78.3-.39,47.62,11.85,95.38,25.68,144.73,29.37,89.27,6.68,161.63-29.16,139.28-123.36-14.58-61.44-39-130-82.8-178.75-46.74-52-91.33-99.31-125.19-161-72.43-132-136.76-265.75-219.75-392.68C979.88,509.79,856.9,361,746,204.16q-37.19-21.69-74.5-43.19C779.19,313.06,902,454.89,1007.67,608.41,1100,742.54,1170.94,884.81,1251.23,1025c71.76,125.28,200.28,211.73,235.66,354.42,23.73,95.66-58.28,128-145.18,125.28-48.07-1.5-94.59-11.6-141.84-18.93-18.76-2.91-63.13-15.32-74.6,5.78-18,33.13,48,101.48,64.76,122,58.86,72,127.07,137.41,194,202.59,72.67,70.78,146.63,140.41,217.71,212.64C1664.11,2092.14,1731,2158,1770,2237.28h26.36C1756.27,2156.08,1687.37,2088.51,1623.26,2023.88Z" fill="#92bae2"/>
    </g>
  </g>
</svg>
